<svg width="535" height="535" viewBox="0 0 535 535" fill="none" xmlns="http://www.w3.org/2000/svg">
<circle cx="267.5" cy="267.5" r="267.5" fill="black"/>
<g clip-path="url(#clip0_25_19)">
<mask id="mask0_25_19" style="mask-type:luminance" maskUnits="userSpaceOnUse" x="59" y="164" width="416" height="208">
<path d="M475 164H59V372H475V164Z" fill="white"/>
</mask>
<g mask="url(#mask0_25_19)">
<path d="M85.0526 260.516C93.9302 268.371 109.327 275.017 131.299 280.401C148.389 284.603 159.319 287.542 164.119 289.162C171.138 291.634 176.048 294.546 178.878 297.87C181.68 301.22 183.095 305.258 183.095 310.009C183.095 311.959 182.845 313.827 182.402 315.64L212.058 312.783C214.444 326.049 219.326 335.772 226.678 341.98C234.03 348.187 243.906 351.291 256.391 351.291C269.596 351.291 279.528 348.517 286.242 342.996C292.928 337.475 296.285 330.993 296.285 323.605C296.285 318.853 294.87 314.816 292.068 311.465C289.238 308.141 284.327 305.23 277.308 302.758C272.509 301.11 261.579 298.199 244.49 293.996C222.517 288.613 207.092 281.966 198.243 274.111C191.141 267.821 186.119 260.68 183.067 252.825C174.273 249.474 163.093 246.178 149.36 242.965C129.413 238.296 116.846 233.819 111.685 229.534C107.607 226.156 105.582 222.091 105.582 217.339C105.582 212.12 107.746 207.973 112.102 204.869C118.843 200.035 128.165 197.591 140.066 197.591C151.968 197.591 160.263 199.843 166.033 204.375C171.804 208.907 178.268 216.213 180.043 226.54C181.098 218.959 183.843 211.763 188.338 204.952C192.694 198.332 198.492 192.894 205.705 188.61C203.458 185.753 200.934 183.061 198.048 180.589C185.092 169.521 165.922 164 140.427 164C124.836 164 111.491 166.335 100.477 171.004C89.4359 175.673 81.0022 182.457 75.1208 191.356C69.2671 200.255 66.3264 209.841 66.3264 220.086C66.3264 235.988 72.5684 249.474 85.0249 260.543L85.0526 260.516Z" fill="white"/>
<path d="M331.515 235.933C334.151 227.501 337.896 221.212 343.223 215.554C353.793 204.32 368.025 198.69 385.946 198.69C397.764 198.69 407.613 201.546 415.52 207.259C423.426 212.972 428.781 220.772 431.666 230.632L472.391 223.079C468.314 204.622 459.214 190.148 445.038 179.683C430.861 169.219 411.164 163.973 385.974 163.973C366.582 163.973 350.38 167.323 337.368 173.97C327.52 178.969 318.281 186.632 311.152 194.158C323.608 204.842 330.544 218.273 331.542 235.906L331.515 235.933Z" fill="white"/>
<path d="M330.713 294.271C328.522 285.921 327.356 276.391 327.356 265.597C327.356 255.379 328.522 246.398 330.796 238.515L290.431 240.273C288.683 229.946 284.91 222.53 279.14 217.998C273.37 213.466 264.714 211.214 253.173 211.214C241.632 211.214 231.922 213.631 225.208 218.492C220.88 221.596 218.688 225.771 218.688 230.962C218.688 235.714 220.713 239.779 224.792 243.157C229.952 247.442 242.519 251.919 262.467 256.588C282.413 261.257 297.145 266.064 306.716 271.062C316.259 276.033 323.75 282.846 329.16 291.497C329.714 292.403 330.241 293.337 330.741 294.299L330.713 294.271Z" fill="white"/>
<path d="M386.642 260.653V294.518H433.582V320.034C427.395 324.786 419.988 328.823 411.36 332.175C402.732 335.525 394.104 337.173 385.532 337.173C368.165 337.173 354.126 331.213 343.418 319.293C340.283 315.805 337.676 311.767 335.484 307.29C336.621 312.289 337.231 317.672 337.231 323.523C337.231 334.949 334.041 345.632 327.688 355.603C329.297 356.647 330.906 357.691 332.627 358.651C348.412 367.468 366.917 371.89 388.167 371.89C404.868 371.89 421.375 368.759 437.688 362.496C453.972 356.235 466.428 348.984 475.001 340.771V260.708H386.642V260.653Z" fill="white"/>
<path d="M174.242 328.357C173.855 328.713 173.494 329.071 173.05 329.428C166.364 334.949 156.404 337.723 143.199 337.723C130.742 337.723 120.838 334.619 113.486 328.412C106.135 322.204 101.28 312.453 98.8661 299.215L58.9723 303.06C61.6633 325.554 69.8751 342.666 83.6354 354.422C97.3957 366.177 117.093 372.027 142.783 372.027C160.426 372.027 175.13 369.583 186.948 364.694C188.447 364.062 189.917 363.403 191.332 362.717C183.093 353.735 177.405 342.281 174.215 328.412L174.242 328.357Z" fill="white"/>
</g>
</g>
<defs>
<clipPath id="clip0_25_19">
<rect width="416" height="208" fill="white" transform="translate(59 164)"/>
</clipPath>
</defs>
</svg>
