<svg width="535" height="535" viewBox="0 0 535 535" fill="none" xmlns="http://www.w3.org/2000/svg">
<circle cx="267.5" cy="267.5" r="267.5" fill="white"/>
<g clip-path="url(#clip0_25_45)">
<mask id="mask0_25_45" style="mask-type:luminance" maskUnits="userSpaceOnUse" x="30" y="149" width="475" height="237">
<path d="M505 149H30V386H505V149Z" fill="white"/>
</mask>
<g mask="url(#mask0_25_45)">
<path d="M59.7475 258.972C69.8842 267.922 87.4652 275.496 112.553 281.629C132.067 286.418 144.547 289.766 150.028 291.613C158.042 294.43 163.649 297.747 166.88 301.534C170.08 305.352 171.695 309.952 171.695 315.366C171.695 317.588 171.41 319.716 170.903 321.782L204.765 318.527C207.49 333.642 213.065 344.721 221.46 351.794C229.854 358.867 241.131 362.403 255.386 362.403C270.464 362.403 281.805 359.243 289.471 352.952C297.105 346.661 300.938 339.275 300.938 330.858C300.938 325.443 299.323 320.843 296.123 317.025C292.892 313.238 287.285 309.921 279.27 307.104C273.791 305.226 261.31 301.909 241.797 297.121C216.708 290.987 199.096 283.413 188.991 274.463C180.882 267.296 175.148 259.16 171.663 250.209C161.621 246.391 148.856 242.636 133.175 238.974C110.399 233.654 96.0496 228.553 90.1577 223.671C85.5012 219.821 83.1887 215.19 83.1887 209.776C83.1887 203.83 85.6595 199.104 90.6329 195.568C98.3304 190.06 108.974 187.274 122.563 187.274C136.153 187.274 145.625 189.84 152.213 195.004C158.803 200.168 166.184 208.492 168.21 220.26C169.415 211.622 172.55 203.423 177.682 195.661C182.655 188.119 189.276 181.923 197.512 177.041C194.946 173.786 192.064 170.719 188.769 167.902C173.976 155.29 152.087 149 122.975 149C105.173 149 89.9359 151.66 77.3601 156.98C64.7525 162.301 55.1226 170.031 48.4071 180.17C41.7232 190.31 38.3654 201.232 38.3654 212.905C38.3654 231.025 45.4928 246.391 59.7159 259.004L59.7475 258.972Z" fill="black"/>
<path d="M341.165 230.963C344.175 221.355 348.451 214.188 354.533 207.741C366.602 194.942 382.853 188.526 403.315 188.526C416.81 188.526 428.055 191.781 437.084 198.29C446.112 204.8 452.225 213.687 455.52 224.923L502.022 216.316C497.365 195.286 486.975 178.793 470.788 166.87C454.601 154.946 432.11 148.969 403.348 148.969C381.205 148.969 362.705 152.787 347.848 160.36C336.604 166.056 326.055 174.787 317.914 183.362C332.137 195.536 340.056 210.84 341.196 230.931L341.165 230.963Z" fill="black"/>
<path d="M340.249 297.434C337.747 287.92 336.416 277.061 336.416 264.761C336.416 253.12 337.747 242.886 340.344 233.904L294.254 235.907C292.258 224.14 287.95 215.69 281.361 210.527C274.773 205.363 264.89 202.797 251.712 202.797C238.534 202.797 227.447 205.551 219.781 211.09C214.839 214.626 212.336 219.383 212.336 225.298C212.336 230.712 214.649 235.344 219.306 239.193C225.198 244.075 239.547 249.176 262.324 254.497C285.099 259.817 301.92 265.294 312.848 270.989C323.745 276.653 332.299 284.415 338.476 294.273C339.108 295.305 339.711 296.37 340.281 297.465L340.249 297.434Z" fill="black"/>
<path d="M404.11 259.128V297.715H457.707V326.789C450.644 332.203 442.186 336.803 432.334 340.622C422.483 344.44 412.631 346.317 402.843 346.317C383.012 346.317 366.983 339.526 354.756 325.944C351.177 321.97 348.199 317.369 345.697 312.268C346.996 317.964 347.692 324.098 347.692 330.764C347.692 343.783 344.049 355.956 336.795 367.317C338.632 368.506 340.47 369.695 342.434 370.79C360.459 380.837 381.587 385.875 405.851 385.875C424.921 385.875 443.769 382.307 462.396 375.171C480.99 368.036 495.213 359.775 505.001 350.416V259.191H404.11V259.128Z" fill="black"/>
<path d="M161.587 336.272C161.144 336.678 160.732 337.085 160.226 337.492C152.591 343.783 141.219 346.943 126.14 346.943C111.917 346.943 100.609 343.407 92.2141 336.334C83.8197 329.261 78.2762 318.151 75.5202 303.067L29.9684 307.448C33.0411 333.079 42.4175 352.576 58.1294 365.971C73.8413 379.365 96.3321 386.031 125.665 386.031C145.811 386.031 162.601 383.246 176.095 377.676C177.806 376.955 179.485 376.204 181.101 375.422C171.693 365.188 165.198 352.138 161.556 336.334L161.587 336.272Z" fill="black"/>
</g>
</g>
<defs>
<clipPath id="clip0_25_45">
<rect width="475" height="237" fill="white" transform="translate(30 149)"/>
</clipPath>
</defs>
</svg>
