<svg width="24" height="25" viewBox="0 0 24 25" fill="none" xmlns="http://www.w3.org/2000/svg">
<path d="M22.084 12.449C21.717 11.855 21.08 11.5 20.382 11.5H20V8.5C20 6.846 18.654 5.5 17 5.5H11.414L10.293 4.379C9.726 3.812 8.973 3.5 8.172 3.5H5C3.346 3.5 2 4.846 2 6.5V18.5C2 20.154 3.346 21.5 5 21.5H16.763C17.908 21.5 18.936 20.864 19.447 19.841L22.172 14.395C22.484 13.771 22.452 13.044 22.085 12.45L22.084 12.449ZM17.657 18.947C17.486 19.288 17.143 19.5 16.762 19.5H5C4.516 19.5 4.111 19.154 4.02 18.697L6.619 13.5H20.383L17.658 18.947H17.657Z" fill="#464A4D"/>
</svg>
