<svg width="24" height="24" viewBox="0 0 24 24" fill="none" xmlns="http://www.w3.org/2000/svg">
<path fill-rule="evenodd" clip-rule="evenodd" d="M10.75 2.57177V9.00006C10.75 9.41428 10.4142 9.75006 10 9.75006H8.75V17.0001C8.75 17.7695 8.98532 18.3137 9.33583 18.6642C9.68634 19.0147 10.2306 19.2501 11 19.2501H17.26C18.4244 19.2501 19.3961 18.3626 19.5011 17.2044L20.0551 11.1135C20.055 11.1136 20.0551 11.1133 20.0551 11.1135C20.1211 10.3814 19.5447 9.75006 18.81 9.75006H15C14.5858 9.75006 14.25 9.41428 14.25 9.00006V5.00006C14.25 3.66117 12.9535 2.10859 10.75 2.57177ZM7.25 19.2501V9.75006H3.75V19.2501H7.25ZM3 8.25006C2.58579 8.25006 2.25 8.58585 2.25 9.00006V20.0001C2.25 20.4143 2.58579 20.7501 3 20.7501H8C8.3764 20.7501 8.68804 20.4728 8.7418 20.1113C9.36853 20.5387 10.1447 20.7501 11 20.7501H17.26C19.1995 20.7501 20.8197 19.2717 20.9949 17.34C20.9949 17.3401 20.9949 17.3399 20.9949 17.34L21.5489 11.249C21.6946 9.63919 20.4272 8.25006 18.81 8.25006H15.75V5.00006C15.75 2.53774 13.249 0.126482 9.76283 1.28855C9.45657 1.39064 9.25 1.67724 9.25 2.00006V8.25006H3Z" fill="#464A4D"/>
</svg>
