<svg width="16" height="16" viewBox="0 0 16 16" fill="none" xmlns="http://www.w3.org/2000/svg">
<path d="M13.3334 8.66667C13.3334 12 11.0001 13.6667 8.22675 14.6333C8.08152 14.6825 7.92377 14.6802 7.78008 14.6267C5.00008 13.6667 2.66675 12 2.66675 8.66667V4C2.66675 3.82319 2.73699 3.65362 2.86201 3.5286C2.98703 3.40357 3.1566 3.33333 3.33341 3.33333C4.66675 3.33333 6.33341 2.53333 7.49341 1.52C7.63465 1.39933 7.81432 1.33303 8.00008 1.33303C8.18585 1.33303 8.36551 1.39933 8.50675 1.52C9.67342 2.54 11.3334 3.33333 12.6667 3.33333C12.8436 3.33333 13.0131 3.40357 13.1382 3.5286C13.2632 3.65362 13.3334 3.82319 13.3334 4V8.66667Z" stroke="white" stroke-width="2" stroke-linecap="round" stroke-linejoin="round"/>
</svg>
