<svg width="29" height="29" viewBox="0 0 29 29" fill="none" xmlns="http://www.w3.org/2000/svg">
<rect width="29" height="29" rx="5" fill="#006FFF"/>
<path d="M20.3334 15.6667C20.3334 19 18.0001 20.6667 15.2267 21.6333C15.0815 21.6825 14.9238 21.6802 14.7801 21.6267C12.0001 20.6667 9.66675 19 9.66675 15.6667V11C9.66675 10.8232 9.73699 10.6536 9.86201 10.5286C9.98703 10.4036 10.1566 10.3333 10.3334 10.3333C11.6667 10.3333 13.3334 9.53333 14.4934 8.52C14.6347 8.39933 14.8143 8.33303 15.0001 8.33303C15.1858 8.33303 15.3655 8.39933 15.5067 8.52C16.6734 9.54 18.3334 10.3333 19.6667 10.3333C19.8436 10.3333 20.0131 10.4036 20.1382 10.5286C20.2632 10.6536 20.3334 10.8232 20.3334 11V15.6667Z" stroke="white" stroke-width="2" stroke-linecap="round" stroke-linejoin="round"/>
</svg>
