<svg width="44" height="22" viewBox="0 0 44 22" fill="none" xmlns="http://www.w3.org/2000/svg">
<g clip-path="url(#clip0_557_5211)">
<path d="M2.75556 10.2084C3.69454 11.0392 5.32309 11.7422 7.64706 12.3116C9.4546 12.7561 10.6107 13.0669 11.1184 13.2383C11.8607 13.4998 12.3801 13.8077 12.6794 14.1593C12.9758 14.5137 13.1254 14.9407 13.1254 15.4433C13.1254 15.6495 13.099 15.8471 13.0521 16.0388L16.1888 15.7367C16.4412 17.1398 16.9576 18.1682 17.7352 18.8248C18.5128 19.4813 19.5574 19.8096 20.8779 19.8096C22.2746 19.8096 23.3251 19.5162 24.0352 18.9323C24.7424 18.3483 25.0974 17.6627 25.0974 16.8813C25.0974 16.3787 24.9478 15.9517 24.6514 15.5973C24.3521 15.2457 23.8327 14.9378 23.0903 14.6763C22.5827 14.502 21.4266 14.1941 19.6191 13.7496C17.2951 13.1802 15.6636 12.4772 14.7276 11.6464C13.9764 10.9811 13.4453 10.2258 13.1225 9.39496C12.1923 9.04054 11.0098 8.69193 9.5573 8.35204C7.44753 7.85818 6.11828 7.38466 5.5725 6.93147C5.14116 6.57414 4.92695 6.1442 4.92695 5.64162C4.92695 5.08966 5.15583 4.651 5.61652 4.32273C6.32955 3.81144 7.31548 3.55289 8.5743 3.55289C9.83312 3.55289 10.7105 3.7911 11.3208 4.27043C11.9312 4.74977 12.6149 5.52251 12.8026 6.61482C12.9142 5.81302 13.2046 5.05189 13.68 4.33144C14.1407 3.63132 14.754 3.05612 15.5169 2.60293C15.2792 2.30081 15.0122 2.01611 14.707 1.75465C13.3367 0.583916 11.3091 0 8.61245 0C6.96337 0 5.55196 0.24693 4.38704 0.74079C3.21918 1.23465 2.32715 1.9522 1.70508 2.89344C1.08594 3.83468 0.774902 4.84854 0.774902 5.93213C0.774902 7.61416 1.43512 9.04054 2.75263 10.2113L2.75556 10.2084Z" fill="black"/>
<path d="M28.8237 7.60834C29.1025 6.71649 29.4986 6.05123 30.062 5.45279C31.18 4.26462 32.6853 3.66909 34.5808 3.66909C35.8308 3.66909 36.8725 3.97121 37.7088 4.57546C38.5451 5.17972 39.1114 6.00475 39.4166 7.04767L43.7241 6.24878C43.2928 4.29658 42.3303 2.76561 40.8309 1.65879C39.3315 0.551959 37.2481 -0.0029068 34.5838 -0.0029068C32.5327 -0.0029068 30.819 0.35151 29.4428 1.05453C28.4012 1.58325 27.424 2.39377 26.6699 3.18975C27.9874 4.31982 28.721 5.74039 28.8266 7.60544L28.8237 7.60834Z" fill="black"/>
<path d="M28.7389 13.7787C28.5071 12.8955 28.3838 11.8875 28.3838 10.7458C28.3838 9.66513 28.5071 8.71517 28.7477 7.88142L24.4783 8.06734C24.2934 6.97504 23.8943 6.19068 23.284 5.71134C22.6737 5.23201 21.7582 4.99379 20.5375 4.99379C19.3168 4.99379 18.2898 5.24944 17.5797 5.76363C17.1219 6.09191 16.8901 6.53347 16.8901 7.08253C16.8901 7.5851 17.1043 8.01505 17.5357 8.37238C18.0815 8.82556 19.4107 9.29909 21.5205 9.79295C23.6302 10.2868 25.1884 10.7952 26.2007 11.3239C27.2101 11.8497 28.0024 12.5702 28.5746 13.4853C28.6332 13.5811 28.689 13.6799 28.7418 13.7816L28.7389 13.7787Z" fill="black"/>
<path d="M34.6544 10.2229V13.8048H39.6192V16.5036C38.9649 17.0062 38.1814 17.4332 37.2688 17.7877C36.3563 18.1421 35.4437 18.3164 34.537 18.3164C32.7001 18.3164 31.2153 17.686 30.0827 16.4252C29.7511 16.0563 29.4753 15.6292 29.2435 15.1557C29.3638 15.6844 29.4283 16.2538 29.4283 16.8726C29.4283 18.0811 29.0909 19.2111 28.4189 20.2657C28.5891 20.3761 28.7593 20.4865 28.9413 20.5881C30.6109 21.5207 32.5681 21.9884 34.8157 21.9884C36.5822 21.9884 38.3281 21.6572 40.0535 20.9948C41.7759 20.3325 43.0934 19.5656 44.0001 18.6969V10.2287H34.6544V10.2229Z" fill="black"/>
<path d="M12.1891 17.3839C12.1481 17.4216 12.1099 17.4594 12.063 17.4972C11.3558 18.0811 10.3024 18.3745 8.90564 18.3745C7.58813 18.3745 6.54059 18.0462 5.76299 17.3897C4.9854 16.7331 4.4719 15.7018 4.21661 14.3016L-0.00292969 14.7083C0.281699 17.0875 1.15025 18.8974 2.60567 20.1408C4.06109 21.3841 6.14445 22.0029 8.86163 22.0029C10.7278 22.0029 12.283 21.7444 13.533 21.2273C13.6915 21.1604 13.847 21.0907 13.9967 21.0181C13.1252 20.0681 12.5236 18.8567 12.1862 17.3897L12.1891 17.3839Z" fill="black"/>
</g>
<defs>
<clipPath id="clip0_557_5211">
<rect width="44" height="22" fill="white"/>
</clipPath>
</defs>
</svg>
