<svg width="20" height="20" viewBox="0 0 20 20" fill="none" xmlns="http://www.w3.org/2000/svg">
<path fill-rule="evenodd" clip-rule="evenodd" d="M1.66666 8.95817C1.66666 4.94633 4.94649 1.6665 8.95833 1.6665C12.9702 1.6665 16.25 4.94633 16.25 8.95817C16.25 12.97 12.9702 16.2498 8.95833 16.2498C4.94649 16.2498 1.66666 12.97 1.66666 8.95817ZM8.95833 2.9165C5.63684 2.9165 2.91666 5.63668 2.91666 8.95817C2.91666 12.2797 5.63684 14.9998 8.95833 14.9998C12.2798 14.9998 15 12.2797 15 8.95817C15 5.63668 12.2798 2.9165 8.95833 2.9165Z" fill="#464A4D"/>
<path fill-rule="evenodd" clip-rule="evenodd" d="M14.067 13.1829L17.7336 16.8495L16.8497 17.7334L13.1831 14.0668L14.067 13.1829Z" fill="#464A4D"/>
</svg>
