<svg width="24" height="25" viewBox="0 0 24 25" fill="none" xmlns="http://www.w3.org/2000/svg">
<path fill-rule="evenodd" clip-rule="evenodd" d="M2.80567 6.30567C3.32116 5.79018 4.02086 5.5 4.75 5.5H7.75V7H4.75C4.41914 7 4.10084 7.13182 3.86633 7.36633C3.63182 7.60084 3.5 7.91914 3.5 8.25V19.25C3.5 19.5809 3.63182 19.8992 3.86633 20.1337C4.10084 20.3682 4.41914 20.5 4.75 20.5H15.75C16.0809 20.5 16.3992 20.3682 16.6337 20.1337C16.8682 19.8992 17 19.5809 17 19.25V16.25H18.5V19.25C18.5 19.9791 18.2098 20.6788 17.6943 21.1943C17.1788 21.7098 16.4791 22 15.75 22H4.75C4.02086 22 3.32116 21.7098 2.80567 21.1943C2.29018 20.6788 2 19.9791 2 19.25V8.25C2 7.52086 2.29018 6.82116 2.80567 6.30567Z" fill="#464A4D"/>
<path fill-rule="evenodd" clip-rule="evenodd" d="M16.6352 3.33418C17.1699 2.79974 17.8945 2.5 18.65 2.5C19.4058 2.5 20.1306 2.79992 20.6653 3.33467C21.2001 3.86942 21.5 4.59422 21.5 5.35C21.5 6.10549 21.2003 6.83004 20.6659 7.36473L11.0614 17H7V12.9386L16.6352 3.33418ZM18.65 4C18.2918 4 17.9486 4.14208 17.6953 4.39533L8.5 13.5614V15.5H10.4386L19.6047 6.30467C19.8579 6.05142 20 5.70822 20 5.35C20 4.99178 19.8579 4.64858 19.6047 4.39533C19.3514 4.14208 19.0082 4 18.65 4Z" fill="#464A4D"/>
<path fill-rule="evenodd" clip-rule="evenodd" d="M18.2197 8.78033L15.2197 5.78033L16.2803 4.71967L19.2803 7.71967L18.2197 8.78033Z" fill="#464A4D"/>
</svg>
